<svg height="512pt" viewBox="0 0 512 512" width="512pt" xmlns="http://www.w3.org/2000/svg"><path d="m239.933594 222.800781c8.285156 0 15-6.714843 15-15 0-8.285156-6.714844-15-15-15h-40.167969c-8.28125 0-15 6.714844-15 15v96.398438c0 8.285156 6.71875 15 15 15h40.167969c8.285156 0 15-6.714844 15-15 0-8.285157-6.714844-15-15-15h-25.167969v-18.199219h17.132813c8.285156 0 15-6.714844 15-15s-6.714844-15-15-15h-17.132813v-18.199219zm0 0"/><path d="m296.167969 241c-12.042969 0-12.039063-18.199219 0-18.199219h16.066406c8.28125 0 15-6.714843 15-15 0-8.285156-6.71875-15-15-15h-16.066406c-21.5625 0-39.101563 17.539063-39.101563 39.097657 0 21.5625 17.539063 39.101562 39.101563 39.101562 12.039062 0 12.035156 18.199219 0 18.199219h-16.066407c-8.285156 0-15 6.714843-15 15 0 8.285156 6.714844 15 15 15h16.066407c21.558593 0 39.097656-17.539063 39.097656-39.097657 0-21.5625-17.539063-39.101562-39.097656-39.101562zm0 0"/><path d="m135.5 192.800781h-24.101562c-8.28125 0-15 6.714844-15 15v96.398438c0 8.285156 6.71875 15 15 15h24.101562c21.820312 0 39.101562-17.828125 39.101562-39.097657 0-9.085937-3.113281-17.453124-8.332031-24.101562 5.335938-6.847656 8.332031-15.40625 8.332031-24.117188 0-21.335937-17.363281-39.082031-39.101562-39.082031zm6.394531 93.757813c-1.667969 1.679687-4 2.640625-6.394531 2.640625h-9.101562v-18.199219h9.101562c5.019531 0 9.101562 4.082031 9.101562 9.101562 0 2.378907-.984374 4.730469-2.707031 6.457032zm.011719-48.199219c-1.675781 1.675781-4.007812 2.640625-6.40625 2.640625h-9.101562v-18.199219h9.101562c2.398438 0 4.730469.960938 6.402344 2.640625 1.714844 1.71875 2.695312 4.066406 2.695312 6.476563.003906 2.375-.980468 4.722656-2.691406 6.441406zm0 0"/><path d="m400.601562 192.800781h-48.203124c-8.28125 0-15 6.714844-15 15 0 8.285157 6.71875 15 15 15h9.101562v81.398438c0 8.285156 6.714844 15 15 15s15-6.714844 15-15v-81.398438h9.101562c8.28125 0 15-6.714843 15-15 0-8.285156-6.71875-15-15-15zm0 0"/><path d="m512 256c0-12.0625-4.191406-23.859375-11.789062-33.203125l-21.472657-26.457031 5.355469-33.691406c4.496094-28.105469-13.496094-49.996094-33.222656-57.515626l-31.886719-12.210937-12.148437-31.769531c-8.84375-23.398438-33.0625-37.167969-57.519532-33.261719l-33.683594 5.367187-26.441406-21.449218c-9.320312-7.617188-21.105468-11.808594-33.191406-11.808594-12.0625 0-23.859375 4.191406-33.203125 11.789062l-26.457031 21.472657-33.691406-5.355469c-28.105469-4.496094-49.996094 13.496094-57.515626 33.222656l-12.210937 31.882813-31.769531 12.148437c-23.398438 8.847656-37.167969 33.0625-33.261719 57.523438l5.367187 33.683594-21.449218 26.441406c-7.617188 9.320312-11.808594 21.105468-11.808594 33.191406 0 12.0625 4.191406 23.859375 11.789062 33.203125l21.472657 26.457031-5.355469 33.691406c-4.496094 28.105469 13.496094 49.996094 33.222656 57.515626l31.886719 12.210937 12.148437 31.769531c8.84375 23.398438 33.0625 37.167969 57.519532 33.261719l33.683594-5.367187 26.445312 21.449218c9.316406 7.617188 21.101562 11.808594 33.1875 11.808594 12.0625 0 23.859375-4.191406 33.203125-11.789062l26.457031-21.472657 33.691406 5.355469c28.105469 4.496094 49.996094-13.496094 57.515626-33.222656l12.210937-31.886719 31.769531-12.148437c23.398438-8.84375 37.167969-33.0625 33.261719-57.519532l-5.367187-33.683594 21.449218-26.445312c7.617188-9.316406 11.808594-21.101562 11.808594-33.1875zm-35.070312 14.25-23.523438 29c-.066406.085938-.136719.171875-.207031.257812-5.839844 7.535157-4.972657 15.300782-4.589844 17.65625l5.875 36.878907c1.410156 8.847656-2.699219 20.371093-14.300781 24.753906l-34.867188 13.335937c-.058594.019532-.117187.042969-.171875.066407-5.359375 2.125-10.488281 6.570312-12.957031 13.121093l-13.34375 34.84375c-3.195312 8.382813-12.527344 16.265626-24.769531 14.308594l-36.875-5.867187c-.046875-.007813-.09375-.015625-.140625-.019531-8.714844-1.300782-14.976563 2.464843-17.867188 4.882812l-28.902344 23.460938c-8.253906 6.710937-20.207031 6.804687-28.539062 0l-29-23.523438c-.085938-.066406-.171875-.136719-.257812-.203125-7.535157-5.839844-15.300782-4.976563-17.65625-4.59375l-36.878907 5.875c-8.847656 1.414063-20.371093-2.699219-24.753906-14.296875l-13.335937-34.871094c-.019532-.058594-.042969-.113281-.066407-.171875-2.125-5.359375-6.570312-10.484375-13.121093-12.957031l-34.84375-13.34375c-8.382813-3.195312-16.265626-12.523438-14.308594-24.765625l5.867187-36.875c.007813-.050781.015625-.097656.019531-.144531 1.300782-8.714844-2.464843-14.972656-4.882812-17.867188l-23.460938-28.902344c-6.710937-8.253906-6.804687-20.207031 0-28.535156l23.523438-29c.066406-.089844.136719-.175781.203125-.261718 5.839844-7.535157 4.976563-15.300782 4.59375-17.652344l-5.875-36.882813c-1.414063-8.847656 2.699219-20.367187 14.296875-24.753906l34.871094-13.335937c.058594-.019532.113281-.042969.171875-.066407 5.359375-2.121093 10.484375-6.570312 12.957031-13.121093l13.34375-34.839844c3.195312-8.386719 12.523438-16.265625 24.765625-14.308594l36.875 5.863281c.050781.007813.097656.015625.144531.019531 8.714844 1.300782 14.972656-2.464843 17.867188-4.882812l28.902344-23.457031c8.253906-6.714844 20.207031-6.808594 28.535156-.003907l29 23.523438c.089844.066406.175781.136719.261718.207031 7.535157 5.839844 15.300782 4.972657 17.652344 4.589844l36.882813-5.875c8.847656-1.410156 20.367187 2.699219 24.753906 14.300781l13.335937 34.867188c.019532.058594.042969.117187.066407.171875 2.121093 5.359375 6.570312 10.488281 13.121093 12.957031l34.839844 13.34375c8.386719 3.195312 16.265625 12.527344 14.308594 24.769531l-5.863281 36.875c-.007813.046875-.015625.09375-.019531.140625-1.300782 8.714844 2.464843 14.976563 4.882812 17.867188l23.457031 28.902344c6.714844 8.253906 6.808594 20.207031.003907 28.539062zm0 0"/></svg>